# xmcd
#
# Track frame offsets: 
#        150
#        18260
#        35028
#        54625
#        69481
#        87529
#        112099
#        133252
#        153306
#
# Disc length: 2249 seconds
#
# Revision: 0
# Processed by: cddbd v1.5.2PL0 Copyright (c) Steve Scherf et al.
# Submitted via: ExactAudioCopy v1.3
#
DISCID=7e08c709
DTITLE=Christina Crofts - Midnight Train
DYEAR=2008
DGENRE=Blues Rock
TTITLE0=Midnight Train
TTITLE1=I Can't Take It
TTITLE2=Angel Dust
TTITLE3=Secrets
TTITLE4=Wanna Take You Home
TTITLE5=Time Machine
TTITLE6=See You Stumble
TTITLE7=Tongue Tied
TTITLE8=Escape To Blue
EXTD=
EXTT0=
EXTT1=
EXTT2=
EXTT3=
EXTT4=
EXTT5=
EXTT6=
EXTT7=
EXTT8=
PLAYORDER=
